<svg width="548" height="285" viewBox="0 0 548 285" fill="none" xmlns="http://www.w3.org/2000/svg">
<path fill-rule="evenodd" clip-rule="evenodd" d="M338.775 115.827C374.72 147.252 369.718 202.634 390.36 245.687C412.467 291.793 481.457 328.265 463.604 376.179C444.904 426.364 360.221 402.579 319.111 436.902C279.696 469.809 289.622 556.772 238.772 563.889C188.899 570.87 165.021 500.468 131.136 463.213C108.023 437.801 92.6218 409.395 72.7599 381.368C45.532 342.948 -17.6085 314.555 -6.67571 268.752C4.29485 222.79 81.1849 236.225 115.226 203.453C152.479 167.589 146.694 93.6223 194.838 74.751C242.457 56.0857 300.269 82.1635 338.775 115.827Z" fill="#B2FF9E" fill-opacity="0.25"/>
</svg>
