<svg width="302" height="300" viewBox="0 0 302 300" fill="none" xmlns="http://www.w3.org/2000/svg">
<path fill-rule="evenodd" clip-rule="evenodd" d="M144.547 -103.326C162.259 -75.3348 158.148 -40.786 169.329 -9.60558C184.217 31.9099 236.952 67.8654 220.627 108.837C204.692 148.834 145.39 145.238 103.565 155.454C71.779 163.219 40.6744 160.842 7.95361 160.787C-31.8939 160.719 -78.7874 181.618 -108.525 155.093C-138.121 128.695 -129.452 80.0717 -126.91 40.4947C-124.851 8.44454 -112.203 -20.6683 -95.473 -48.0828C-80.1007 -73.2727 -57.2813 -90.368 -35.1425 -109.88C-4.42828 -136.95 17.979 -185.625 58.8925 -184.132C99.1022 -182.666 123.032 -137.327 144.547 -103.326Z" fill="#B2FF9E" fill-opacity="0.25"/>
</svg>
