<svg width="24" height="24" viewBox="0 0 24 24" fill="none" xmlns="http://www.w3.org/2000/svg">
<path d="M19.4 9.60001C19.9523 9.60001 20.4 10.0477 20.4 10.6V12.2C20.4 12.7523 19.9523 13.2 19.4 13.2H15.4C14.8478 13.2 14.4 13.6477 14.4 14.2V18.2C14.4 18.7523 13.9523 19.2 13.4 19.2H11.8C11.2478 19.2 10.8 18.7523 10.8 18.2V14.2C10.8 13.6477 10.3523 13.2 9.80005 13.2H5.80005C5.24776 13.2 4.80005 12.7523 4.80005 12.2V10.6C4.80005 10.0477 5.24776 9.60001 5.80005 9.60001H9.80005C10.3523 9.60001 10.8 9.15229 10.8 8.60001V4.60001C10.8 4.04772 11.2478 3.60001 11.8 3.60001H13.4C13.9523 3.60001 14.4 4.04772 14.4 4.60001V8.60001C14.4 9.15229 14.8478 9.60001 15.4 9.60001H19.4Z" fill="white"/>
</svg>
