<svg width="426" height="385" viewBox="0 0 426 385" fill="none" xmlns="http://www.w3.org/2000/svg">
<g clip-path="url(#clip0)">
<path d="M188.954 194.381H149.988C149.098 194.384 148.219 194.188 147.418 193.808C146.618 193.429 145.916 192.876 145.366 192.191C144.807 191.5 144.417 190.694 144.225 189.833C144.032 188.973 144.044 188.081 144.257 187.225C147.839 172.555 147.839 157.266 144.257 142.596C144.043 141.74 144.032 140.848 144.225 139.987C144.417 139.127 144.807 138.321 145.366 137.63C145.916 136.945 146.618 136.392 147.418 136.013C148.219 135.633 149.098 135.437 149.988 135.44H188.954C190.358 135.444 191.715 135.935 192.782 136.826C193.85 137.716 194.56 138.949 194.786 140.303C197.354 156.612 197.354 173.209 194.786 189.518C194.56 190.872 193.85 192.105 192.782 192.995C191.715 193.886 190.358 194.377 188.954 194.381Z" fill="#F2F2F2"/>
<path d="M170.4 175.57C176.628 175.57 181.676 170.798 181.676 164.91C181.676 159.023 176.628 154.251 170.4 154.251C164.172 154.251 159.124 159.023 159.124 164.91C159.124 170.798 164.172 175.57 170.4 175.57Z" fill="white"/>
<path d="M175.322 163.432H171.742V159.491C171.742 159.099 171.601 158.723 171.349 158.446C171.097 158.169 170.756 158.013 170.4 158.013C170.044 158.013 169.702 158.169 169.451 158.446C169.199 158.723 169.058 159.099 169.058 159.491V163.432H165.478C165.122 163.432 164.78 163.588 164.528 163.865C164.277 164.142 164.135 164.518 164.135 164.91C164.135 165.302 164.277 165.678 164.528 165.956C164.78 166.233 165.122 166.388 165.478 166.388H169.058V170.33C169.058 170.722 169.199 171.098 169.451 171.375C169.702 171.652 170.044 171.808 170.4 171.808C170.756 171.808 171.097 171.652 171.349 171.375C171.601 171.098 171.742 170.722 171.742 170.33V166.388H175.322C175.678 166.388 176.02 166.233 176.272 165.956C176.523 165.678 176.665 165.302 176.665 164.91C176.665 164.518 176.523 164.142 176.272 163.865C176.02 163.588 175.678 163.432 175.322 163.432Z" fill="#E6E6E6"/>
<path d="M143.016 224.055L107.437 209.274C106.657 208.953 105.96 208.458 105.401 207.827C104.841 207.197 104.432 206.446 104.206 205.634C103.974 204.812 103.932 203.948 104.084 203.107C104.236 202.267 104.577 201.472 105.083 200.783C114.069 188.412 120.016 174.1 122.443 159.005C122.574 158.161 122.897 157.358 123.385 156.657C123.874 155.957 124.516 155.377 125.262 154.961C125.997 154.548 126.817 154.308 127.659 154.26C128.502 154.212 129.344 154.356 130.121 154.682L165.701 169.463C166.928 169.976 167.932 170.909 168.536 172.094C169.139 173.28 169.302 174.641 168.996 175.935C165.019 192.114 158.588 207.59 149.928 221.823C149.227 222.954 148.147 223.798 146.881 224.207C145.616 224.616 144.246 224.562 143.016 224.055Z" fill="#E6E6E6"/>
<path d="M128.907 158.219C128.528 158.063 128.119 157.994 127.709 158.017C127.299 158.04 126.9 158.155 126.542 158.351C126.174 158.552 125.858 158.833 125.617 159.172C125.377 159.511 125.218 159.899 125.154 160.307C122.621 175.738 116.415 190.369 107.039 203.016C106.789 203.348 106.62 203.732 106.545 204.138C106.469 204.544 106.489 204.961 106.604 205.359L106.604 205.359C106.714 205.746 106.913 206.104 107.185 206.404C107.458 206.705 107.796 206.941 108.176 207.094L144.225 221.765C144.823 222.009 145.489 222.037 146.106 221.844C146.723 221.651 147.249 221.25 147.592 220.712C156.211 206.834 162.611 191.746 166.57 175.971C166.717 175.353 166.635 174.705 166.34 174.141C166.044 173.576 165.554 173.133 164.956 172.89L128.907 158.219Z" fill="white"/>
<path d="M148.386 190.391L129.597 182.395C128.883 182.09 128.316 181.508 128.021 180.776C127.726 180.043 127.726 179.221 128.022 178.489L128.46 177.411C128.757 176.679 129.326 176.099 130.041 175.796C130.756 175.494 131.558 175.495 132.273 175.798L151.062 183.794C151.776 184.099 152.343 184.681 152.638 185.413C152.933 186.146 152.932 186.968 152.637 187.7L152.199 188.778C151.902 189.51 151.333 190.09 150.618 190.392C149.903 190.695 149.1 190.694 148.386 190.391Z" fill="#B2FF9E"/>
<path d="M142.345 202.951L124.495 195.621C123.817 195.342 123.279 194.808 122.998 194.137C122.718 193.465 122.718 192.712 122.999 192.041L123.415 191.052C123.698 190.382 124.238 189.85 124.917 189.572C125.596 189.295 126.359 189.296 127.038 189.574L144.887 196.903C145.565 197.183 146.104 197.717 146.384 198.388C146.665 199.059 146.664 199.813 146.383 200.484L145.967 201.472C145.685 202.143 145.145 202.675 144.465 202.952C143.786 203.229 143.024 203.229 142.345 202.951Z" fill="#B2FF9E"/>
<path d="M155.435 171.808C155.151 171.808 154.869 171.751 154.605 171.64L135.448 163.66C134.904 163.433 134.47 162.993 134.241 162.436C134.011 161.879 134.006 161.251 134.225 160.69L135.701 156.931C135.921 156.37 136.348 155.922 136.889 155.686C137.429 155.45 138.039 155.444 138.583 155.671L157.74 163.651C158.284 163.879 158.718 164.319 158.947 164.876C159.177 165.432 159.182 166.06 158.963 166.621L157.488 170.381C157.322 170.802 157.038 171.162 156.673 171.417C156.307 171.671 155.876 171.807 155.435 171.808Z" fill="#CCCCCC"/>
<path d="M311.182 169.3H236.353C233.816 169.297 231.383 168.28 229.589 166.471C227.795 164.663 226.785 162.212 226.782 159.655V71.0946C226.785 68.5375 227.795 66.0859 229.589 64.2777C231.383 62.4695 233.816 61.4524 236.353 61.4495H305.969L320.753 73.3244V159.655C320.75 162.212 319.741 164.663 317.946 166.471C316.152 168.28 313.719 169.297 311.182 169.3Z" fill="#E6E6E6"/>
<path d="M236.046 65.2117C234.254 65.2138 232.537 65.933 231.27 67.2116C230.003 68.4902 229.29 70.2238 229.288 72.0321V159.971C229.29 161.779 230.003 163.513 231.27 164.792C232.537 166.07 234.254 166.789 236.046 166.792H310.236C312.028 166.789 313.746 166.07 315.013 164.792C316.28 163.513 316.992 161.779 316.994 159.971V75.5745L304.113 65.2117H236.046Z" fill="white"/>
<path d="M296.592 90.2932H262.22C262.009 90.2932 261.8 90.2445 261.604 90.15C261.409 90.0554 261.232 89.9169 261.083 89.7422C260.933 89.5675 260.815 89.3601 260.734 89.1319C260.653 88.9037 260.612 88.6591 260.612 88.4121C260.612 88.165 260.653 87.9204 260.734 87.6922C260.815 87.464 260.933 87.2566 261.083 87.0819C261.232 86.9072 261.409 86.7687 261.604 86.6741C261.8 86.5796 262.009 86.5309 262.22 86.5309H296.592C296.803 86.5309 297.012 86.5796 297.207 86.6741C297.402 86.7687 297.58 86.9072 297.729 87.0819C297.878 87.2566 297.997 87.464 298.078 87.6922C298.158 87.9204 298.2 88.165 298.2 88.4121C298.2 88.6591 298.158 88.9037 298.078 89.1319C297.997 89.3601 297.878 89.5675 297.729 89.7422C297.58 89.9169 297.402 90.0554 297.207 90.15C297.012 90.2445 296.803 90.2932 296.592 90.2932Z" fill="#CCCCCC"/>
<path d="M302.87 95.3094H262.206C261.783 95.3094 261.378 95.1113 261.079 94.7585C260.78 94.4057 260.612 93.9272 260.612 93.4283C260.612 92.9294 260.78 92.451 261.079 92.0982C261.378 91.7454 261.783 91.5472 262.206 91.5472H302.87C303.293 91.5472 303.699 91.7454 303.998 92.0982C304.297 92.451 304.465 92.9294 304.465 93.4283C304.465 93.9272 304.297 94.4057 303.998 94.7585C303.699 95.1113 303.293 95.3094 302.87 95.3094Z" fill="#CCCCCC"/>
<path d="M296.592 115.375H262.22C261.793 115.375 261.384 115.176 261.083 114.824C260.781 114.471 260.612 113.992 260.612 113.493C260.612 112.995 260.781 112.516 261.083 112.163C261.384 111.811 261.793 111.612 262.22 111.612H296.592C297.018 111.612 297.427 111.811 297.729 112.163C298.031 112.516 298.2 112.995 298.2 113.493C298.2 113.992 298.031 114.471 297.729 114.824C297.427 115.176 297.018 115.375 296.592 115.375Z" fill="#CCCCCC"/>
<path d="M302.87 119.137H262.206C261.783 119.137 261.378 118.939 261.079 118.586C260.78 118.233 260.612 117.755 260.612 117.256C260.612 116.757 260.78 116.278 261.079 115.926C261.378 115.573 261.783 115.375 262.206 115.375H302.87C303.293 115.375 303.699 115.573 303.998 115.926C304.297 116.278 304.465 116.757 304.465 117.256C304.465 117.755 304.297 118.233 303.998 118.586C303.699 118.939 303.293 119.137 302.87 119.137Z" fill="#CCCCCC"/>
<path d="M296.592 137.948H262.22C261.793 137.948 261.384 137.816 261.083 137.581C260.781 137.345 260.612 137.026 260.612 136.694C260.612 136.361 260.781 136.042 261.083 135.807C261.384 135.572 261.793 135.44 262.22 135.44H296.592C297.018 135.44 297.427 135.572 297.729 135.807C298.031 136.042 298.2 136.361 298.2 136.694C298.2 137.026 298.031 137.345 297.729 137.581C297.427 137.816 297.018 137.948 296.592 137.948Z" fill="#CCCCCC"/>
<path d="M302.87 144.218H262.206C261.783 144.218 261.378 144.02 261.079 143.667C260.78 143.314 260.612 142.836 260.612 142.337C260.612 141.838 260.78 141.36 261.079 141.007C261.378 140.654 261.783 140.456 262.206 140.456H302.87C303.293 140.456 303.699 140.654 303.998 141.007C304.297 141.36 304.465 141.838 304.465 142.337C304.465 142.836 304.297 143.314 303.998 143.667C303.699 144.02 303.293 144.218 302.87 144.218Z" fill="#CCCCCC"/>
<path d="M248.709 96.5635C251.823 96.5635 254.347 94.3177 254.347 91.5472C254.347 88.7768 251.823 86.5309 248.709 86.5309C245.595 86.5309 243.071 88.7768 243.071 91.5472C243.071 94.3177 245.595 96.5635 248.709 96.5635Z" fill="#B2FF9E"/>
<path d="M247.538 92.8013C247.408 92.8015 247.281 92.7655 247.177 92.6987L247.171 92.6946L245.812 91.8053C245.686 91.7219 245.603 91.5987 245.582 91.463C245.561 91.3272 245.604 91.1899 245.701 91.0812C245.798 90.9725 245.942 90.9014 246.101 90.8834C246.259 90.8654 246.42 90.9021 246.547 90.9853L247.427 91.5627L249.506 89.2413C249.554 89.1875 249.614 89.1423 249.683 89.1084C249.751 89.0745 249.827 89.0524 249.906 89.0435C249.984 89.0347 250.064 89.0391 250.141 89.0566C250.217 89.0742 250.289 89.1044 250.352 89.1457L250.352 89.1458L250.339 89.1611L250.352 89.1458C250.479 89.2292 250.562 89.3524 250.583 89.4881C250.604 89.6239 250.561 89.7612 250.464 89.87L248.018 92.5992C247.962 92.6621 247.889 92.713 247.806 92.7479C247.723 92.7829 247.631 92.8009 247.538 92.8007L247.538 92.8013Z" fill="white"/>
<path d="M248.709 121.645C251.823 121.645 254.347 119.118 254.347 116.002C254.347 112.885 251.823 110.358 248.709 110.358C245.595 110.358 243.071 112.885 243.071 116.002C243.071 119.118 245.595 121.645 248.709 121.645Z" fill="#CCCCCC"/>
<path d="M248.709 145.472C251.823 145.472 254.347 143.226 254.347 140.456C254.347 137.686 251.823 135.44 248.709 135.44C245.595 135.44 243.071 137.686 243.071 140.456C243.071 143.226 245.595 145.472 248.709 145.472Z" fill="#CCCCCC"/>
<path d="M320.553 73.9902H308.92C308.07 73.9902 307.256 73.6375 306.656 73.0096C306.055 72.3818 305.718 71.5302 305.718 70.6422V61.6588C305.718 61.6194 305.728 61.5809 305.748 61.5476C305.768 61.5143 305.797 61.4875 305.831 61.4704C305.865 61.4533 305.902 61.4465 305.94 61.4508C305.977 61.4551 306.013 61.4703 306.042 61.4947L320.677 73.617C320.71 73.6439 320.733 73.6808 320.745 73.7226C320.757 73.7643 320.755 73.8087 320.742 73.8498C320.728 73.8908 320.703 73.9264 320.669 73.9515C320.635 73.9767 320.594 73.9902 320.553 73.9902Z" fill="#E6E6E6"/>
<path d="M119.304 207.731C119.142 208.025 119.004 208.331 118.891 208.646L89.7794 215.888L84.7151 210.636L75.8094 217.262L83.8734 227.433C84.5249 228.255 85.4246 228.842 86.4376 229.108C87.4506 229.373 88.5222 229.302 89.4914 228.905L121.08 215.965C122.118 216.732 123.364 217.163 124.653 217.201C125.942 217.24 127.212 216.885 128.294 216.182C129.376 215.48 130.219 214.464 130.711 213.269C131.203 212.075 131.321 210.758 131.049 209.495C130.776 208.232 130.127 207.082 129.186 206.198C128.246 205.313 127.059 204.737 125.784 204.546C124.509 204.354 123.206 204.556 122.049 205.125C120.891 205.694 119.934 206.603 119.304 207.731L119.304 207.731Z" fill="#A0616A"/>
<path d="M19.9368 272.176C20.8444 271.895 21.6795 271.418 22.3832 270.778C23.087 270.139 23.6423 269.352 24.0101 268.474C24.3779 267.596 24.5491 266.648 24.5119 265.697C24.4746 264.745 24.2297 263.814 23.7944 262.967L43.828 207.147L29.9154 204.675L14.5977 260.322C13.228 261.149 12.2085 262.452 11.7326 263.982C11.2566 265.513 11.3572 267.165 12.0153 268.626C12.6734 270.087 13.8433 271.256 15.3033 271.91C16.7633 272.564 18.4119 272.659 19.9368 272.176Z" fill="#A0616A"/>
<path d="M41.2837 217.056L27.5471 211.771C27.1562 211.62 26.8023 211.387 26.5094 211.087C26.2166 210.788 25.9916 210.428 25.8498 210.033C25.7081 209.638 25.6529 209.217 25.688 208.799C25.7231 208.381 25.8478 207.975 26.0534 207.61L33.2596 194.801C34.0386 192.801 35.5768 191.192 37.5372 190.328C39.4975 189.463 41.7199 189.412 43.7172 190.188C45.7146 190.963 47.3238 192.5 48.1921 194.463C49.0604 196.426 49.117 198.653 48.3494 200.658L45.1709 214.965C45.0797 215.375 44.9016 215.76 44.6486 216.094C44.3956 216.428 44.0737 216.704 43.7048 216.903C43.3359 217.101 42.9287 217.217 42.5109 217.244C42.0931 217.27 41.6745 217.206 41.2837 217.056V217.056Z" fill="#FE7D60"/>
<path d="M72.289 376.976L79.7039 376.976L83.2311 348.305L72.2878 348.306L72.289 376.976Z" fill="#A0616A"/>
<path d="M70.3975 374.549L84.9998 374.549H85.0004C86.2224 374.549 87.4325 374.79 88.5615 375.259C89.6906 375.728 90.7164 376.415 91.5806 377.281C92.4447 378.147 93.1301 379.176 93.5978 380.308C94.0654 381.439 94.3062 382.652 94.3061 383.877V384.181L70.398 384.182L70.3975 374.549Z" fill="#2F2E41"/>
<path d="M30.5577 376.976L37.9725 376.976L41.4998 348.305L30.5565 348.306L30.5577 376.976Z" fill="#A0616A"/>
<path d="M28.6661 374.549L43.2684 374.549H43.269C44.491 374.549 45.7011 374.79 46.8301 375.259C47.9592 375.728 48.985 376.415 49.8492 377.281C50.7133 378.147 51.3988 379.176 51.8664 380.308C52.3341 381.439 52.5748 382.652 52.5748 383.877V384.181L28.6666 384.182L28.6661 374.549Z" fill="#2F2E41"/>
<path d="M38.3308 365.436H28.9475C28.5792 365.436 28.2147 365.362 27.8762 365.216C27.5377 365.071 27.232 364.858 26.9779 364.591C26.7237 364.324 26.5263 364.008 26.3976 363.662C26.2689 363.316 26.2115 362.947 26.229 362.578L30.686 266.582L30.9668 266.574L76.2781 265.39L85.1448 361.442C85.1789 361.802 85.1412 362.165 85.034 362.51C84.9268 362.856 84.7521 363.176 84.5202 363.453C84.2883 363.73 84.0038 363.959 83.6831 364.124C83.3625 364.29 83.0121 364.39 82.6525 364.419L72.1131 365.264C71.4509 365.317 70.7924 365.125 70.2614 364.725C69.7304 364.325 69.3636 363.745 69.2299 363.092L55.7487 294.716C55.7119 294.509 55.602 294.321 55.439 294.187C55.2759 294.054 55.0706 293.984 54.8602 293.989H54.8565C54.6454 293.984 54.4397 294.056 54.2768 294.191C54.114 294.326 54.005 294.515 53.9697 294.723L41.0011 363.235C40.8783 363.855 40.5452 364.413 40.0583 364.814C39.5715 365.215 38.9611 365.435 38.3308 365.436Z" fill="#2F2E41"/>
<path d="M55.5191 180.965C63.723 180.965 70.3736 174.298 70.3736 166.074C70.3736 157.85 63.723 151.183 55.5191 151.183C47.3151 151.183 40.6645 157.85 40.6645 166.074C40.6645 174.298 47.3151 180.965 55.5191 180.965Z" fill="#A0616A"/>
<path d="M50.5381 277.832C43.4581 277.832 36.186 275.966 30.1575 270.45C29.8367 270.159 29.589 269.795 29.4346 269.39C29.2801 268.984 29.2233 268.548 29.2687 268.116C29.914 262.304 33.044 232.295 31.2813 212.249C30.9373 208.505 31.4661 204.732 32.8259 201.228C34.1857 197.723 36.3394 194.584 39.1169 192.057C41.8457 189.536 45.1217 187.685 48.6864 186.65C52.251 185.615 56.0068 185.425 59.6573 186.095H59.6574C59.8424 186.128 60.0273 186.163 60.2124 186.198C72.105 188.506 80.368 199.539 79.4331 211.863C78.0687 229.846 76.8457 254.171 78.7661 267.927C78.8457 268.489 78.7476 269.063 78.4857 269.567C78.2239 270.071 77.8112 270.481 77.3056 270.738C72.936 272.951 61.9883 277.832 50.5381 277.832Z" fill="#FE7D60"/>
<path d="M69.9216 218.127C69.5731 217.895 69.2786 217.59 69.0585 217.233C68.8383 216.876 68.6975 216.475 68.6458 216.059L66.836 201.514C66.2615 199.445 66.5287 197.233 67.5789 195.362C68.6291 193.49 70.3766 192.113 72.4384 191.531C74.5002 190.949 76.7079 191.211 78.5775 192.259C80.4472 193.306 81.8262 195.054 82.4122 197.119L88.3733 210.556C88.5434 210.939 88.629 211.355 88.6244 211.775C88.6198 212.194 88.525 212.608 88.3465 212.988C88.168 213.367 87.91 213.704 87.5901 213.974C87.2701 214.245 86.8957 214.443 86.4924 214.556L72.3175 218.51C71.9142 218.623 71.4913 218.647 71.0778 218.581C70.6644 218.515 70.27 218.36 69.9216 218.127Z" fill="#FE7D60"/>
<path d="M50.3334 180.755C48.9274 180.781 47.5301 180.528 46.2224 180.009C45.647 179.787 45.0497 179.604 44.4753 179.382C39.4031 177.417 36.0618 172.002 35.9421 166.552C35.8225 161.103 38.6378 155.813 42.8182 152.327C46.9987 148.841 52.4134 147.051 57.8354 146.638C63.6757 146.192 70.2522 147.677 73.5157 152.552C74.3844 153.85 74.9919 155.425 74.4772 156.992C74.323 157.465 74.0476 157.889 73.6786 158.222C72.2212 159.522 70.7682 158.544 69.2825 158.458C67.2403 158.339 65.4061 159.996 64.7469 161.937C64.0876 163.879 64.3778 166.016 64.9101 167.996C65.3156 169.187 65.5713 170.425 65.6711 171.679C65.7141 172.309 65.596 172.939 65.3281 173.509C65.0603 174.08 64.6514 174.573 64.1404 174.94C62.8643 175.714 61.1885 175.266 59.9117 174.494C58.6348 173.722 57.5316 172.649 56.1523 172.081C54.7731 171.513 52.9202 171.639 52.1174 172.898C51.8623 173.357 51.6896 173.856 51.6073 174.375C50.8876 177.662 51.053 177.468 50.3334 180.755V180.755Z" fill="#2F2E41"/>
<path d="M115.921 385H1.00873C0.84833 385 0.694495 384.936 0.581073 384.822C0.46765 384.709 0.403931 384.554 0.403931 384.394C0.403931 384.233 0.46765 384.079 0.581073 383.965C0.694495 383.851 0.84833 383.787 1.00873 383.787H115.921C116.082 383.787 116.235 383.851 116.349 383.965C116.462 384.079 116.526 384.233 116.526 384.394C116.526 384.554 116.462 384.709 116.349 384.822C116.235 384.936 116.082 385 115.921 385Z" fill="#CCCCCC"/>
<path d="M401.13 259.409L325.503 302.269C323.317 303.505 320.734 303.814 318.323 303.128C315.911 302.443 313.867 300.819 312.639 298.613L278.104 236.407C276.881 234.198 276.575 231.588 277.253 229.152C277.932 226.715 279.539 224.65 281.723 223.409L357.35 180.549C359.536 179.313 362.118 179.004 364.53 179.689C366.942 180.375 368.986 181.999 370.214 184.205L404.749 246.411C405.972 248.62 406.278 251.229 405.599 253.666C404.921 256.102 403.314 258.168 401.13 259.409Z" fill="white"/>
<path d="M401.13 259.409L325.503 302.269C323.317 303.505 320.734 303.814 318.323 303.128C315.911 302.443 313.867 300.819 312.639 298.613L278.104 236.407C276.881 234.198 276.575 231.588 277.253 229.152C277.932 226.715 279.539 224.65 281.723 223.409L357.35 180.549C359.536 179.313 362.118 179.004 364.53 179.689C366.942 180.375 368.986 181.999 370.214 184.205L404.749 246.411C405.972 248.62 406.278 251.229 405.599 253.666C404.921 256.102 403.314 258.168 401.13 259.409ZM282.267 224.389C280.34 225.484 278.922 227.306 278.323 229.456C277.725 231.606 277.995 233.908 279.074 235.857L313.609 298.063C314.692 300.01 316.496 301.443 318.624 302.048C320.752 302.652 323.03 302.38 324.959 301.289L400.586 258.429C402.513 257.334 403.931 255.512 404.53 253.362C405.128 251.212 404.858 248.91 403.779 246.961L369.244 184.754C368.161 182.808 366.357 181.375 364.229 180.77C362.101 180.165 359.823 180.438 357.894 181.529L282.267 224.389Z" fill="#AFAFAF"/>
<path d="M364.358 200.169L322.829 223.521C322.468 223.734 322.04 223.801 321.631 223.71C321.223 223.618 320.864 223.374 320.628 223.028C320.512 222.845 320.435 222.64 320.401 222.426C320.367 222.213 320.376 221.994 320.429 221.784C320.482 221.574 320.577 221.377 320.709 221.205C320.84 221.033 321.005 220.889 321.193 220.783L363.468 197.012C365.547 197.456 365.569 199.488 364.358 200.169L364.358 200.169Z" fill="#CCCCCC"/>
<path d="M368.444 207.471L326.915 230.824C326.554 231.036 326.126 231.104 325.717 231.012C325.309 230.921 324.95 230.677 324.714 230.331C324.598 230.148 324.521 229.943 324.487 229.729C324.453 229.515 324.462 229.296 324.515 229.086C324.568 228.876 324.663 228.679 324.795 228.507C324.926 228.335 325.091 228.192 325.279 228.086L367.554 204.314C369.633 204.758 369.655 206.791 368.444 207.471L368.444 207.471Z" fill="#CCCCCC"/>
<path d="M318.664 241.488L307.064 248.094C306.685 248.31 306.237 248.363 305.819 248.244C305.401 248.125 305.047 247.842 304.834 247.457L297.156 233.56C296.944 233.175 296.891 232.721 297.008 232.297C297.126 231.872 297.405 231.512 297.783 231.296L309.383 224.691C309.762 224.475 310.21 224.422 310.628 224.541C311.046 224.66 311.4 224.943 311.613 225.327L319.291 239.225C319.503 239.61 319.556 240.064 319.439 240.488C319.321 240.913 319.043 241.272 318.664 241.489L318.664 241.488Z" fill="#CCCCCC"/>
<path d="M371.375 224.913L312.984 258.126C312.652 258.324 312.258 258.387 311.881 258.302C311.505 258.216 311.175 257.989 310.957 257.667C310.851 257.496 310.779 257.305 310.748 257.106C310.716 256.907 310.725 256.703 310.774 256.507C310.823 256.311 310.91 256.128 311.031 255.967C311.152 255.807 311.304 255.673 311.478 255.575L370.555 221.971C372.47 222.384 372.49 224.278 371.375 224.913Z" fill="#CCCCCC"/>
<path d="M375.133 232.336L316.743 264.404C316.411 264.595 316.017 264.656 315.64 264.573C315.264 264.491 314.934 264.272 314.716 263.96C314.609 263.795 314.538 263.611 314.507 263.419C314.475 263.226 314.484 263.03 314.533 262.841C314.582 262.652 314.669 262.474 314.79 262.319C314.911 262.165 315.063 262.036 315.237 261.94L374.314 229.495C376.229 229.894 376.249 231.723 375.133 232.336V232.336Z" fill="#CCCCCC"/>
<path d="M378.892 238.708L320.502 271.921C320.17 272.119 319.775 272.182 319.399 272.096C319.023 272.011 318.692 271.784 318.475 271.461C318.368 271.291 318.297 271.1 318.265 270.901C318.234 270.701 318.243 270.498 318.292 270.302C318.34 270.106 318.428 269.922 318.549 269.762C318.67 269.602 318.822 269.468 318.996 269.369L378.073 235.765C379.988 236.179 380.008 238.073 378.892 238.708Z" fill="#CCCCCC"/>
<path d="M382.651 244.978L324.261 278.191C323.928 278.389 323.534 278.452 323.158 278.367C322.782 278.282 322.451 278.055 322.234 277.732C322.127 277.561 322.056 277.37 322.024 277.171C321.993 276.972 322.002 276.768 322.05 276.572C322.099 276.376 322.187 276.193 322.308 276.032C322.429 275.872 322.581 275.738 322.755 275.64L381.832 242.036C383.747 242.449 383.767 244.343 382.651 244.978H382.651Z" fill="#CCCCCC"/>
<path d="M386.41 252.502L328.02 285.715C327.687 285.914 327.293 285.976 326.917 285.891C326.54 285.806 326.21 285.579 325.992 285.256C325.886 285.086 325.815 284.895 325.783 284.695C325.752 284.496 325.761 284.292 325.809 284.097C325.858 283.901 325.946 283.717 326.067 283.557C326.188 283.396 326.34 283.263 326.513 283.164L385.59 249.56C387.506 249.974 387.526 251.868 386.41 252.502V252.502Z" fill="#CCCCCC"/>
<path d="M381.976 279.059C382.321 278.296 382.495 277.466 382.485 276.628C382.476 275.79 382.284 274.964 381.921 274.209C381.559 273.454 381.036 272.787 380.39 272.257C379.743 271.726 378.988 271.344 378.178 271.137L376.454 250.842L368.164 257.398L371.072 275.665C370.816 277.053 371.077 278.486 371.804 279.693C372.532 280.901 373.676 281.799 375.02 282.217C376.364 282.635 377.815 282.545 379.097 281.963C380.379 281.381 381.403 280.347 381.976 279.059Z" fill="#FFB8B8"/>
<path d="M376.61 269.012L369.726 269.835C369.376 269.877 369.022 269.846 368.684 269.744C368.347 269.642 368.034 269.471 367.766 269.242C367.498 269.014 367.279 268.732 367.125 268.415C366.97 268.097 366.882 267.751 366.867 267.399L365.863 244.115L352.813 208.377C352.29 207.268 352.051 206.045 352.119 204.821C352.187 203.596 352.558 202.407 353.201 201.363C353.52 200.859 353.887 200.385 354.294 199.949C355.097 199.082 356.098 198.422 357.21 198.026C358.322 197.63 359.513 197.51 360.682 197.675C361.886 197.835 363.035 198.282 364.032 198.977C365.03 199.671 365.847 200.595 366.418 201.67L374.928 219.548C378.488 227.026 380.169 235.263 379.824 243.541L378.864 266.573C378.839 267.176 378.602 267.75 378.196 268.195C377.791 268.641 377.241 268.928 376.644 269.007L376.61 269.012Z" fill="#FEBF60"/>
<path d="M401.06 369.639L394.677 372.447L380.833 349.103L390.254 344.958L401.06 369.639Z" fill="#FFB8B8"/>
<path d="M405.404 375.125L384.823 384.182L384.709 383.921C384.247 382.866 383.997 381.731 383.973 380.579C383.949 379.428 384.151 378.283 384.568 377.21C384.986 376.136 385.61 375.156 386.405 374.325C387.2 373.494 388.151 372.828 389.203 372.365L389.203 372.365L401.774 366.833L405.404 375.125Z" fill="#2F2E41"/>
<path d="M315.366 377.407H308.395L305.079 350.453L315.368 350.454L315.366 377.407Z" fill="#FFB8B8"/>
<path d="M317.144 384.182L294.667 384.181V383.896C294.667 382.744 294.893 381.604 295.333 380.539C295.773 379.475 296.417 378.509 297.229 377.694C298.042 376.88 299.006 376.234 300.068 375.793C301.129 375.352 302.267 375.125 303.416 375.125H303.416L317.144 375.126L317.144 384.182Z" fill="#2F2E41"/>
<path d="M383.234 368.193L344.402 281.32C344.332 281.158 344.213 281.021 344.062 280.929C343.911 280.836 343.735 280.794 343.559 280.806C343.382 280.819 343.214 280.886 343.077 280.999C342.941 281.111 342.842 281.264 342.796 281.435L319.136 365.343C318.979 365.93 318.619 366.442 318.12 366.787C317.621 367.132 317.015 367.286 316.412 367.223L303.49 365.927C302.824 365.857 302.212 365.53 301.783 365.014C301.354 364.499 301.142 363.837 301.193 363.167C305.303 311.921 311.782 263.554 331.192 231.892L331.295 231.723L360.654 237.494L399.851 362.619C400.044 363.263 399.979 363.958 399.668 364.554C399.357 365.151 398.825 365.602 398.187 365.81L386.367 369.619C385.761 369.816 385.104 369.779 384.525 369.515C383.945 369.252 383.485 368.78 383.234 368.193Z" fill="#2F2E41"/>
<path d="M345.486 187.391C353.198 187.391 359.451 181.123 359.451 173.391C359.451 165.66 353.198 159.392 345.486 159.392C337.773 159.392 331.52 165.66 331.52 173.391C331.52 181.123 337.773 187.391 345.486 187.391Z" fill="#FFB8B8"/>
<path d="M329.387 234.315L329.209 234.279L329.167 234.102C327.286 226.138 327.241 217.446 329.034 208.27C329.944 203.58 332.475 199.362 336.182 196.359C339.889 193.356 344.534 191.761 349.3 191.855C354.47 191.96 359.405 194.042 363.095 197.674C366.784 201.307 368.95 206.216 369.148 211.396C369.747 227.179 363.313 240.863 363.248 240.999L363.152 241.199L329.387 234.315Z" fill="#FEBF60"/>
<path d="M291.95 260.949C292.777 260.827 293.567 260.524 294.265 260.062C294.963 259.601 295.551 258.991 295.988 258.277C296.425 257.563 296.701 256.761 296.795 255.929C296.89 255.096 296.801 254.253 296.536 253.458L312.621 241.014L302.634 237.578L288.89 249.923C287.588 250.458 286.528 251.454 285.909 252.722C285.291 253.989 285.158 255.439 285.535 256.799C285.912 258.158 286.773 259.331 287.956 260.096C289.138 260.861 290.56 261.165 291.95 260.949V260.949Z" fill="#FFB8B8"/>
<path d="M300.736 251.564C300.212 251.874 299.595 251.987 298.996 251.881C298.397 251.775 297.856 251.458 297.469 250.986L293.051 245.631C292.826 245.358 292.66 245.043 292.563 244.703C292.466 244.364 292.439 244.008 292.486 243.658C292.532 243.308 292.65 242.971 292.833 242.669C293.015 242.367 293.257 242.106 293.545 241.902L312.525 228.446L335.427 198.091C336.073 197.05 336.969 196.187 338.033 195.581C339.097 194.974 340.295 194.644 341.518 194.62C342.114 194.616 342.709 194.668 343.296 194.775C344.458 194.982 345.553 195.468 346.487 196.191C347.422 196.914 348.168 197.853 348.663 198.927C349.18 200.029 349.428 201.238 349.385 202.455C349.343 203.672 349.011 204.861 348.419 205.924L331.461 233.454L331.424 233.514L300.736 251.564Z" fill="#FEBF60"/>
<path d="M347.983 172.523C346.954 170.825 344.682 170.346 342.71 170.54C340.738 170.733 338.821 171.428 336.839 171.413C331.337 171.37 327.091 164.648 329.404 159.643C331.301 155.539 336.039 153.737 340.324 152.323C349.311 149.357 359.633 146.507 367.787 151.316C370.386 152.894 372.517 155.138 373.961 157.818C375.405 160.497 376.109 163.515 376.001 166.558C375.817 170.343 374.371 174.23 375.594 177.815C377.005 181.951 381.477 184.17 385.704 185.243C393.113 187.125 400.925 186.822 408.38 188.51C415.836 190.197 423.476 194.679 425.485 202.071C426.805 206.927 425.428 212.154 423.147 216.637C420.82 221.211 417.585 225.261 413.642 228.538C409.699 231.816 405.13 234.251 400.215 235.697C395.3 237.142 390.143 237.566 385.058 236.943C379.974 236.32 375.07 234.664 370.647 232.074C361.634 226.799 355.127 217.882 351.247 208.168C349.048 202.502 347.499 196.603 346.632 190.586C345.763 184.953 346.5 179.26 348.074 173.783C348.148 173.578 348.179 173.36 348.163 173.143C348.147 172.926 348.086 172.715 347.983 172.523Z" fill="#2F2E41"/>
<path d="M398.364 385H283.451C283.291 385 283.137 384.936 283.024 384.822C282.91 384.709 282.847 384.554 282.847 384.394C282.847 384.233 282.91 384.079 283.024 383.965C283.137 383.851 283.291 383.787 283.451 383.787H398.364C398.524 383.787 398.678 383.851 398.792 383.965C398.905 384.079 398.969 384.233 398.969 384.394C398.969 384.554 398.905 384.709 398.792 384.822C398.678 384.936 398.524 385 398.364 385Z" fill="#CCCCCC"/>
<path d="M164.283 57.6873C163.884 57.6859 163.489 57.778 163.13 57.9565C162.771 58.135 162.456 58.3953 162.209 58.7175C161.955 59.0476 161.778 59.4327 161.691 59.8436C161.604 60.2546 161.609 60.6804 161.707 61.0888C165.313 76.5785 165.313 92.7212 161.707 108.211C161.609 108.619 161.604 109.045 161.691 109.456C161.778 109.867 161.955 110.252 162.209 110.582L162.209 110.582C162.456 110.904 162.771 111.165 163.13 111.343C163.489 111.522 163.884 111.614 164.283 111.612H202.269C202.899 111.613 203.509 111.384 203.989 110.966C204.47 110.548 204.79 109.969 204.894 109.332C207.349 92.9736 207.349 76.326 204.894 59.9675C204.79 59.3303 204.47 58.7513 203.989 58.3337C203.509 57.9162 202.899 57.6871 202.269 57.6873L164.283 57.6873Z" fill="white"/>
<path d="M193.78 71.4821H173.332C172.555 71.4813 171.809 71.2048 171.26 70.7131C170.71 70.2214 170.401 69.5547 170.4 68.8594V67.8344C170.401 67.1391 170.71 66.4724 171.26 65.9807C171.809 65.4891 172.555 65.2125 173.332 65.2117H193.78C194.557 65.2125 195.302 65.4891 195.852 65.9807C196.402 66.4724 196.711 67.1391 196.712 67.8344V68.8594C196.711 69.5547 196.402 70.2214 195.852 70.7131C195.302 71.2048 194.557 71.4813 193.78 71.4821Z" fill="#E6E6E6"/>
<path d="M193.78 86.5309H173.332C172.555 86.53 171.809 86.1982 171.26 85.6081C170.71 85.0181 170.401 84.2181 170.4 83.3837V82.1538C170.401 81.3193 170.71 80.5194 171.26 79.9293C171.809 79.3393 172.555 79.0074 173.332 79.0065H193.78C194.557 79.0074 195.302 79.3393 195.852 79.9293C196.402 80.5194 196.711 81.3193 196.712 82.1538V83.3837C196.711 84.2181 196.402 85.0181 195.852 85.6081C195.302 86.1982 194.557 86.53 193.78 86.5309Z" fill="#E6E6E6"/>
<path d="M193.78 101.58H173.332C172.555 101.579 171.809 101.247 171.26 100.657C170.71 100.067 170.401 99.267 170.4 98.4325V97.2026C170.401 96.3682 170.71 95.5682 171.26 94.9782C171.809 94.3882 172.555 94.0563 173.332 94.0554H193.78C194.557 94.0563 195.302 94.3882 195.852 94.9782C196.402 95.5682 196.711 96.3682 196.712 97.2026V98.4325C196.711 99.267 196.402 100.067 195.852 100.657C195.302 101.247 194.557 101.579 193.78 101.58Z" fill="#E6E6E6"/>
<path d="M63.6539 78.0163C63.2545 78.015 62.8601 78.1049 62.5006 78.2792C62.1412 78.4536 61.8261 78.7078 61.5795 79.0225C61.3256 79.3449 61.1484 79.7211 61.0614 80.1225C60.9744 80.5238 60.9799 80.9398 61.0776 81.3387C64.6833 96.4681 64.6834 112.235 61.0778 127.365C60.9801 127.764 60.9745 128.18 61.0614 128.581C61.1483 128.982 61.3255 129.358 61.5794 129.681L61.5796 129.681C61.8262 129.996 62.1412 130.25 62.5006 130.424C62.8601 130.599 63.2545 130.689 63.6539 130.687H101.64C102.27 130.688 102.879 130.464 103.36 130.056C103.84 129.648 104.161 129.083 104.264 128.46C106.72 112.482 106.72 96.2216 104.264 80.2435C104.161 79.6211 103.84 79.0556 103.36 78.6477C102.879 78.2398 102.27 78.0161 101.64 78.0163L63.6539 78.0163Z" fill="white"/>
<path d="M93.1505 98.0814H72.7025C71.9252 98.0807 71.1799 97.8041 70.6303 97.3124C70.0806 96.8207 69.7715 96.1541 69.7706 95.4587V94.4338C69.7715 93.7384 70.0806 93.0718 70.6303 92.5801C71.1799 92.0884 71.9252 91.8118 72.7025 91.8111H93.1505C93.9279 91.8118 94.6731 92.0884 95.2227 92.5801C95.7724 93.0718 96.0815 93.7384 96.0824 94.4338V95.4587C96.0815 96.1541 95.7724 96.8207 95.2227 97.3124C94.6731 97.8041 93.9279 98.0807 93.1505 98.0814Z" fill="#E6E6E6"/>
<path d="M93.1505 113.13H72.7025C71.9252 113.129 71.1799 112.797 70.6303 112.207C70.0806 111.617 69.7715 110.817 69.7706 109.983V108.753C69.7715 107.919 70.0806 107.119 70.6303 106.529C71.1799 105.939 71.9252 105.607 72.7025 105.606H93.1505C93.9279 105.607 94.6731 105.939 95.2227 106.529C95.7724 107.119 96.0815 107.919 96.0824 108.753V109.983C96.0815 110.817 95.7724 111.617 95.2227 112.207C94.6731 112.797 93.9279 113.129 93.1505 113.13Z" fill="#E6E6E6"/>
<path d="M193.248 61.4495H172.611C172.025 61.4488 171.463 61.2038 171.048 60.7681C170.634 60.3325 170.401 59.7419 170.4 59.1258V54.9947C170.401 54.3787 170.634 53.788 171.048 53.3524C171.463 52.9167 172.025 52.6717 172.611 52.671H193.248C193.834 52.6717 194.396 52.9167 194.811 53.3524C195.225 53.788 195.458 54.3787 195.459 54.9947V59.1258C195.458 59.7419 195.225 60.3325 194.811 60.7681C194.396 61.2038 193.834 61.4488 193.248 61.4495Z" fill="#CCCCCC"/>
<path d="M92.7289 80.5244H73.1241C72.5672 80.5238 72.0333 80.3138 71.6395 79.9404C71.2457 79.567 71.0242 79.0607 71.0236 78.5327V74.9918C71.0242 74.4637 71.2457 73.9574 71.6395 73.584C72.0333 73.2106 72.5672 73.0006 73.1241 73H92.7289C93.2858 73.0006 93.8197 73.2106 94.2135 73.584C94.6073 73.9574 94.8288 74.4637 94.8294 74.9918V78.5327C94.8288 79.0607 94.6073 79.567 94.2135 79.9404C93.8197 80.3138 93.2858 80.5238 92.7289 80.5244Z" fill="#CCCCCC"/>
</g>
<defs>
<clipPath id="clip0">
<rect width="426" height="385" fill="white"/>
</clipPath>
</defs>
</svg>
